<svg xmlns="http://www.w3.org/2000/svg" viewBox="0 0 164.22 964.9">
	<g id="Calque_2" data-name="Calque 2">
		<g id="Calque_1-2" data-name="Calque 1">
			<path d="M45.79,234.4a14.78,14.78,0,0,0,3.2,8.11,14.26,14.26,0,0,0,6.82,4.14,38.58,38.58,0,0,0,11.08,1.21h66.9c4.42,0,8.86.15,13.27,0a1.34,1.34,0,0,1,.2,0c3.86,0,3.87-6,0-6H68.52c-1.47,0-2.93,0-4.39,0a21.82,21.82,0,0,1-8-1.41c.52.2-.18-.1-.35-.18s-.44-.23-.66-.36-.48-.31-.72-.47c-.41-.25.24.26-.24-.2-.2-.19-.4-.38-.59-.58s-.45-.53-.14-.11a11.74,11.74,0,0,1-.94-1.56c-.16-.29,0,.1.05.14l-.14-.36c-.1-.29-.2-.58-.28-.88s-.13-.53-.19-.8-.18-1.16-.12-.65a3.09,3.09,0,0,0-3-3c-1.47,0-3.19,1.38-3,3Z"/>
			<path d="M45.79,257.93A14.81,14.81,0,0,0,49,266a14.25,14.25,0,0,0,6.82,4.13,38.24,38.24,0,0,0,11.08,1.21h66.9c4.42,0,8.86.15,13.27,0h.2c3.86,0,3.87-6,0-6H68.52c-1.47,0-2.93,0-4.39,0a21.82,21.82,0,0,1-8-1.41c.52.2-.18-.1-.35-.18l-.66-.36c-.25-.15-.48-.31-.72-.47-.41-.26.24.25-.24-.2-.2-.19-.4-.38-.59-.58s-.45-.53-.14-.12a11.63,11.63,0,0,1-.94-1.55c-.16-.3,0,.1.05.14l-.14-.36c-.1-.29-.2-.58-.28-.88s-.13-.54-.19-.81-.18-1.15-.12-.64a3.09,3.09,0,0,0-3-3c-1.47,0-3.19,1.38-3,3Z"/>
			<path d="M45.79,313.7a14.84,14.84,0,0,0,3.2,8.11,14.25,14.25,0,0,0,6.82,4.13,38.24,38.24,0,0,0,11.08,1.21h66.9c4.42,0,8.86.15,13.27,0h.2c3.86,0,3.87-6,0-6H68.52c-1.47,0-2.93,0-4.39,0a22.24,22.24,0,0,1-8-1.41c.52.2-.18-.1-.35-.18l-.66-.36c-.25-.15-.48-.32-.72-.47-.41-.26.24.25-.24-.2-.2-.19-.4-.38-.59-.58s-.45-.54-.14-.12a12.3,12.3,0,0,1-.94-1.55c-.16-.3,0,.1.05.14l-.14-.36c-.1-.29-.2-.59-.28-.88s-.13-.54-.19-.81c0-.12-.18-1.16-.12-.64a3.09,3.09,0,0,0-3-3c-1.47,0-3.19,1.38-3,3Z"/>
			<path d="M45.79,285.81a14.78,14.78,0,0,0,3.2,8.11,14.19,14.19,0,0,0,6.82,4.14,38.24,38.24,0,0,0,11.08,1.21h66.9c4.42,0,8.86.15,13.27,0h.2c3.86,0,3.87-6,0-6H68.52c-1.47,0-2.93,0-4.39,0a21.82,21.82,0,0,1-8-1.41c.52.2-.18-.09-.35-.18s-.44-.23-.66-.36-.48-.31-.72-.46c-.41-.26.24.25-.24-.21l-.59-.57c-.17-.18-.45-.54-.14-.12a11.74,11.74,0,0,1-.94-1.56c-.16-.29,0,.1.05.14-.05-.11-.09-.23-.14-.36-.1-.29-.2-.58-.28-.88s-.13-.53-.19-.8-.18-1.16-.12-.65a3.09,3.09,0,0,0-3-3c-1.47,0-3.19,1.38-3,3Z"/>
			<path d="M45.79,341.58a14.78,14.78,0,0,0,3.2,8.11,14.26,14.26,0,0,0,6.82,4.14A38.58,38.58,0,0,0,66.89,355h66.9c4.42,0,8.86.15,13.27,0a1.34,1.34,0,0,1,.2,0c3.86,0,3.87-6,0-6H68.52c-1.47,0-2.93,0-4.39,0a21.82,21.82,0,0,1-8-1.41c.52.2-.18-.1-.35-.18l-.66-.36c-.25-.15-.48-.31-.72-.47-.41-.25.24.26-.24-.2-.2-.19-.4-.38-.59-.58s-.45-.53-.14-.12a11,11,0,0,1-.94-1.55c-.16-.3,0,.1.05.14l-.14-.36c-.1-.29-.2-.58-.28-.88s-.13-.53-.19-.8-.18-1.16-.12-.65a3.09,3.09,0,0,0-3-3c-1.47,0-3.19,1.38-3,3Z"/>
			<path d="M45.79,369.46a14.84,14.84,0,0,0,3.2,8.12,14.25,14.25,0,0,0,6.82,4.13,38.24,38.24,0,0,0,11.08,1.21h66.9c4.42,0,8.86.15,13.27,0h.2c3.86,0,3.87-6,0-6H68.52c-1.47,0-2.93,0-4.39,0a21.82,21.82,0,0,1-8-1.41c.52.21-.18-.09-.35-.17l-.66-.37c-.25-.14-.48-.31-.72-.46-.41-.26.24.25-.24-.2l-.59-.58c-.17-.18-.45-.54-.14-.12a11.74,11.74,0,0,1-.94-1.56c-.16-.29,0,.11.05.15l-.14-.36c-.1-.3-.2-.59-.28-.89s-.13-.53-.19-.8-.18-1.16-.12-.65a3.09,3.09,0,0,0-3-3c-1.47,0-3.19,1.38-3,3Z"/>
			<path d="M147.26,215.72h-64c-8.24,0-16.47,0-24.71,0-3.3,0-6.59,0-9.89-.17-.92-.06-1.83-.13-2.75-.23l-.61-.07c-.82-.08.64.11-.16,0L43.73,215a28.45,28.45,0,0,1-4.25-1.17c-.19-.06-.61-.29.12.06l-.5-.23c-.27-.13-.53-.27-.79-.41s-.5-.29-.75-.45-1-.89-.35-.23c-.44-.44-.93-.81-1.35-1.28-.17-.18-.73-1-.18-.18-.21-.29-.41-.57-.6-.86a16.5,16.5,0,0,1-.87-1.6c-.09-.18-.16-.35-.24-.52.32.71.11.27,0,.08-.15-.42-.3-.83-.44-1.25a31.9,31.9,0,0,1-1.07-4.72l-.12-.77c-.12-.84,0,.4,0-.12s-.12-1-.17-1.52c-.11-1.09-.2-2.19-.27-3.28-.08-1.35-.16-2.69-.18-4,0-.42,0-.83,0-1.25V17.43c0-3.86-6-3.87-6,0v162c0,4.37-.07,8.73,0,13.09a71.44,71.44,0,0,0,1.27,13A21.77,21.77,0,0,0,30.39,214c4.13,5.7,11.06,7,17.69,7.5,4.27.3,8.56.21,12.84.21h86.34c3.86,0,3.87-6,0-6Z"/>
			<path d="M45.79,508.88A14.84,14.84,0,0,0,49,517a14.25,14.25,0,0,0,6.82,4.13,38.24,38.24,0,0,0,11.08,1.21h66.9c4.42,0,8.86.15,13.27,0h.2c3.86,0,3.87-6,0-6H68.52c-1.47,0-2.93,0-4.39,0a22,22,0,0,1-8-1.42c.52.21-.18-.09-.35-.17l-.66-.37c-.25-.14-.48-.31-.72-.46-.41-.26.24.25-.24-.2l-.59-.58c-.17-.18-.45-.54-.14-.12a12.3,12.3,0,0,1-.94-1.55c-.16-.3,0,.1.05.14l-.14-.36c-.1-.3-.2-.59-.28-.89s-.13-.53-.19-.8c0-.12-.18-1.16-.12-.65a3.1,3.1,0,0,0-3-3c-1.47,0-3.19,1.38-3,3Z"/>
			<path d="M45.79,481a14.78,14.78,0,0,0,3.2,8.11,14.26,14.26,0,0,0,6.82,4.14,38.58,38.58,0,0,0,11.08,1.21h66.9c4.42,0,8.86.15,13.27,0h.2c3.86,0,3.87-6,0-6H68.52c-1.47,0-2.93,0-4.39,0a21.82,21.82,0,0,1-8-1.41c.52.2-.18-.1-.35-.18s-.44-.23-.66-.36-.48-.31-.72-.47c-.41-.25.24.26-.24-.2-.2-.19-.4-.38-.59-.58s-.45-.53-.14-.11a11.74,11.74,0,0,1-.94-1.56c-.16-.29,0,.1.05.14l-.14-.36c-.1-.29-.2-.58-.28-.88s-.13-.53-.19-.8-.18-1.16-.12-.65a3.09,3.09,0,0,0-3-3c-1.47,0-3.19,1.38-3,3Z"/>
			<path d="M45.79,453.12a14.84,14.84,0,0,0,3.2,8.11,14.25,14.25,0,0,0,6.82,4.13,38.24,38.24,0,0,0,11.08,1.21h66.9c4.42,0,8.86.15,13.27,0h.2c3.86,0,3.87-6,0-6H68.52c-1.47,0-2.93,0-4.39,0a22.24,22.24,0,0,1-8-1.41c.52.2-.18-.1-.35-.18l-.66-.36c-.25-.15-.48-.32-.72-.47-.41-.26.24.25-.24-.2-.2-.19-.4-.38-.59-.58s-.45-.54-.14-.12a12.3,12.3,0,0,1-.94-1.55c-.16-.3,0,.1.05.14l-.14-.36c-.1-.29-.2-.59-.28-.88s-.13-.54-.19-.81-.18-1.16-.12-.64a3.09,3.09,0,0,0-3-3c-1.47,0-3.19,1.38-3,3Z"/>
			<path d="M45.79,397.35a14.81,14.81,0,0,0,3.2,8.11,14.25,14.25,0,0,0,6.82,4.13,38.24,38.24,0,0,0,11.08,1.21h66.9c4.42,0,8.86.15,13.27,0h.2c3.86,0,3.87-6,0-6H68.52c-1.47,0-2.93,0-4.39,0a21.82,21.82,0,0,1-8-1.41c.52.2-.18-.1-.35-.18l-.66-.36c-.25-.15-.48-.31-.72-.47-.41-.26.24.25-.24-.2-.2-.19-.4-.38-.59-.58s-.45-.53-.14-.12a11.63,11.63,0,0,1-.94-1.55c-.16-.3,0,.1.05.14l-.14-.36c-.1-.29-.2-.58-.28-.88s-.13-.54-.19-.81-.18-1.15-.12-.64a3.09,3.09,0,0,0-3-3c-1.47,0-3.19,1.38-3,3Z"/>
			<path d="M45.79,536.77a14.81,14.81,0,0,0,3.2,8.11A14.25,14.25,0,0,0,55.81,549a38.24,38.24,0,0,0,11.08,1.21h66.9c4.42,0,8.86.15,13.27,0h.2c3.86,0,3.87-6,0-6H68.52c-1.47,0-2.93,0-4.39,0a21.82,21.82,0,0,1-8-1.41c.52.2-.18-.1-.35-.18l-.66-.36c-.25-.15-.48-.31-.72-.47-.41-.26.24.26-.24-.2-.2-.19-.4-.38-.59-.58s-.45-.53-.14-.12a11.63,11.63,0,0,1-.94-1.55c-.16-.3,0,.1.05.14l-.14-.36c-.1-.29-.2-.58-.28-.88s-.13-.54-.19-.81-.18-1.15-.12-.64a3.09,3.09,0,0,0-3-3c-1.47,0-3.19,1.38-3,3Z"/>
			<path d="M45.79,425.23a14.78,14.78,0,0,0,3.2,8.11,14.19,14.19,0,0,0,6.82,4.14,38.24,38.24,0,0,0,11.08,1.21h66.9c4.42,0,8.86.15,13.27,0h.2c3.86,0,3.87-6,0-6H68.52c-1.47,0-2.93,0-4.39,0a21.82,21.82,0,0,1-8-1.41c.52.21-.18-.09-.35-.18l-.66-.36c-.25-.14-.48-.31-.72-.46-.41-.26.24.25-.24-.21l-.59-.57c-.17-.18-.45-.54-.14-.12a11.74,11.74,0,0,1-.94-1.56c-.16-.29,0,.1.05.14-.05-.11-.09-.23-.14-.36-.1-.29-.2-.58-.28-.88s-.13-.53-.19-.8-.18-1.16-.12-.65a3.09,3.09,0,0,0-3-3c-1.47,0-3.19,1.38-3,3Z"/>
			<path d="M44.05,648.3a14.77,14.77,0,0,0,3.2,8.12,14.2,14.2,0,0,0,6.82,4.13,38.24,38.24,0,0,0,11.08,1.21h66.9c4.41,0,8.86.15,13.27,0h.2c3.86,0,3.86-6,0-6H66.77c-1.46,0-2.92,0-4.39,0a22,22,0,0,1-8-1.42c.51.21-.19-.09-.35-.17s-.45-.24-.66-.37-.48-.31-.72-.46c-.41-.26.24.25-.24-.2-.2-.19-.4-.38-.59-.58s-.46-.54-.14-.12a12.3,12.3,0,0,1-.94-1.55c-.16-.3,0,.1.05.14-.05-.12-.1-.24-.14-.36-.1-.3-.2-.59-.28-.88s-.14-.54-.19-.81-.18-1.16-.12-.65a3.1,3.1,0,0,0-3-3c-1.48,0-3.19,1.38-3,3Z"/>
			<path d="M44.05,676.19a14.74,14.74,0,0,0,3.2,8.11,14.2,14.2,0,0,0,6.82,4.13,38.24,38.24,0,0,0,11.08,1.21h66.9c4.41,0,8.86.15,13.27,0h.2c3.86,0,3.86-6,0-6H66.77c-1.46,0-2.92,0-4.39,0a21.77,21.77,0,0,1-8-1.41c.51.2-.19-.1-.35-.18s-.45-.23-.66-.36-.48-.31-.72-.47c-.41-.26.24.26-.24-.2-.2-.19-.4-.38-.59-.58s-.46-.53-.14-.12a11.63,11.63,0,0,1-.94-1.55c-.16-.3,0,.1.05.14-.05-.12-.1-.24-.14-.36-.1-.29-.2-.58-.28-.88s-.14-.54-.19-.81-.18-1.15-.12-.64a3.09,3.09,0,0,0-3-3c-1.48,0-3.19,1.38-3,3Z"/>
			<path d="M44.05,592.54a14.77,14.77,0,0,0,3.2,8.11,14.2,14.2,0,0,0,6.82,4.13A38.24,38.24,0,0,0,65.15,606h66.9c4.41,0,8.86.15,13.27,0h.2c3.86,0,3.86-6,0-6H66.77c-1.46,0-2.92,0-4.39,0a22.19,22.19,0,0,1-8-1.41c.51.2-.19-.1-.35-.18l-.66-.36c-.25-.15-.48-.32-.72-.47-.41-.26.24.25-.24-.2-.2-.19-.4-.38-.59-.58s-.46-.54-.14-.12a11.63,11.63,0,0,1-.94-1.55c-.16-.3,0,.1.05.14-.05-.12-.1-.24-.14-.36-.1-.29-.2-.59-.28-.88s-.14-.54-.19-.81c0-.12-.18-1.15-.12-.64a3.09,3.09,0,0,0-3-3c-1.48,0-3.19,1.38-3,3Z"/>
			<path d="M44.05,620.42a14.71,14.71,0,0,0,3.2,8.11,14.22,14.22,0,0,0,6.82,4.14,38.58,38.58,0,0,0,11.08,1.21h66.9c4.41,0,8.86.15,13.27,0h.2c3.86,0,3.86-6,0-6H66.77c-1.46,0-2.92,0-4.39,0a21.77,21.77,0,0,1-8-1.41c.51.2-.19-.1-.35-.18s-.45-.23-.66-.36-.48-.31-.72-.47c-.41-.25.24.26-.24-.2-.2-.19-.4-.38-.59-.58s-.46-.53-.14-.11a11.74,11.74,0,0,1-.94-1.56c-.16-.29,0,.1.05.14-.05-.12-.1-.24-.14-.36-.1-.29-.2-.58-.28-.88s-.14-.53-.19-.8-.18-1.16-.12-.65a3.09,3.09,0,0,0-3-3c-1.48,0-3.19,1.38-3,3Z"/>
			<path d="M45.79,564.65a14.78,14.78,0,0,0,3.2,8.11,14.19,14.19,0,0,0,6.82,4.14,38.24,38.24,0,0,0,11.08,1.21h66.9c4.42,0,8.86.15,13.27,0h.2c3.86,0,3.87-6,0-6H68.52c-1.47,0-2.93,0-4.39,0a21.82,21.82,0,0,1-8-1.41c.52.21-.18-.09-.35-.18l-.66-.36c-.25-.14-.48-.31-.72-.46-.41-.26.24.25-.24-.21l-.59-.57c-.17-.18-.45-.54-.14-.12a11.74,11.74,0,0,1-.94-1.56c-.16-.29,0,.11.05.14s-.09-.23-.14-.36c-.1-.29-.2-.58-.28-.88s-.13-.53-.19-.8-.18-1.16-.12-.65a3.09,3.09,0,0,0-3-3c-1.47,0-3.19,1.38-3,3Z"/>
			<path d="M45.79,704.07a14.78,14.78,0,0,0,3.2,8.11,14.19,14.19,0,0,0,6.82,4.14,38.24,38.24,0,0,0,11.08,1.21h66.9c4.42,0,8.86.15,13.27,0h.2c3.86,0,3.87-6,0-6H68.52c-1.47,0-2.93,0-4.39,0a21.82,21.82,0,0,1-8-1.41c.52.21-.18-.09-.35-.18l-.66-.36c-.25-.14-.48-.31-.72-.46-.41-.26.24.25-.24-.2l-.59-.58c-.17-.18-.45-.54-.14-.12a11.74,11.74,0,0,1-.94-1.56c-.16-.29,0,.11.05.15-.05-.12-.09-.24-.14-.37-.1-.29-.2-.58-.28-.88s-.13-.53-.19-.8-.18-1.16-.12-.65a3.09,3.09,0,0,0-3-3c-1.47,0-3.19,1.38-3,3Z"/>
			<path d="M46.23,732.78c.56,4.74,2.61,8.92,6.83,11.43,4,2.41,9,2.93,13.61,2.95h64.69c1.19,0,2.37,0,3.56,0,5-.09,9.31,0,13.85,1.39q.71.21,1.38.45l.59.23c-.65-.25.11.05.2.1a19.87,19.87,0,0,1,2.38,1.34l.46.34c-.6-.44,0,0,.11.09.28.25.55.5.82.77s.56.6.82.91-.39-.6,0,0c.16.25.34.49.51.75a14.92,14.92,0,0,1,1.08,2.06c-.28-.66.22.67.29.89.16.49.29,1,.41,1.48s.19.88.27,1.32c0,.08.11,1,0,.32.08.81,0,.18,0,.28v.07c0,1.33,0,2.65,0,4V962c0,3.86,6,3.87,6,0V767.82c0-5.92.44-11.58-2.73-17-6.81-11.58-22.72-9.69-34.31-9.69H66.9c-1.15,0-2.29,0-3.43-.12a19.38,19.38,0,0,1-3-.42c-.6-.13-1.19-.28-1.77-.46l-.56-.18c-.1,0-1.15-.46-.59-.21-.41-.19-.82-.39-1.21-.61-.22-.13-.45-.26-.67-.41,0,0-.68-.47-.32-.21s-.29-.24-.28-.24c-.19-.16-.37-.33-.55-.51s-.88-1-.5-.52a10.05,10.05,0,0,1-.74-1.17c-.1-.18-.19-.38-.29-.57-.37-.73.15.55-.1-.24-.13-.44-.28-.86-.39-1.31-.07-.27-.13-.55-.18-.83,0,0-.13-1-.06-.37a3.1,3.1,0,0,0-3-3c-1.48,0-3.19,1.38-3,3Z"/>
			</g>
			<g id="Calque_3" data-name="Calque 3">
			<path d="M13.66,0H43.18a3,3,0,0,1,3,3V28.94a0,0,0,0,1,0,0H10.66a0,0,0,0,1,0,0V3A3,3,0,0,1,13.66,0Z"/>
			<path d="M58.4,20.61a.84.84,0,0,1,.84.84v82.49a10.51,10.51,0,0,1-10.52,10.52H10.52A10.52,10.52,0,0,1,0,103.94V21.45a.85.85,0,0,1,.85-.84Z"/>
		</g>
	</g>
</svg>